<svg width="514" height="689" viewBox="0 0 514 689" fill="none" xmlns="http://www.w3.org/2000/svg">
  <path d="M145.333 1.81142C145.333 3.14476 147.733 19.5448 152 46.2114C154 59.1448 157.333 81.2781 168.8 157.278C172.933 185.145 172.933 189.545 169.2 189.545C166.533 189.545 131.333 185.278 66 176.878C52.1333 175.145 32.5333 172.745 22.5333 171.411C4.93333 169.145 0 169.411 0 172.078C0 172.745 2.26667 175.945 5.06667 179.278C7.73333 182.478 16.2667 192.745 24 202.211C31.7333 211.545 54 238.611 73.6 262.478C118.8 317.011 120.4 319.011 119.067 320.345C118.533 320.878 95.8667 326.211 68.6667 332.078C15.2 343.545 11.3333 344.611 12.8 347.145C13.8667 348.878 22.5333 357.011 39.4667 372.345C90.1333 417.945 113.067 439.278 112.533 440.611C112.267 441.545 100.133 450.611 85.6 460.745C48.2667 487.145 41.3333 492.345 41.3333 493.545C41.3333 494.878 37.4667 493.811 85.2 506.878C106.8 512.878 124.933 517.945 125.6 518.345C126.133 518.745 126.4 520.345 126 521.945C119.6 551.545 112 589.411 112 592.345C112 596.878 112.533 597.011 127.333 594.211C148.667 590.078 167.467 586.878 171.067 586.878H174.667V606.478C174.667 617.411 175.2 627.011 175.733 627.945C176.667 629.278 178.8 628.878 185.733 626.211C190.667 624.345 195.2 622.878 195.733 622.878C196.267 622.878 199.2 626.478 202.4 630.745C218.533 652.878 247.6 674.211 273.333 682.745C288.933 687.811 325.867 690.478 327.333 686.478C327.733 685.545 328.533 673.411 329.067 659.545L330 634.211L340.667 633.411C365.2 631.545 395.467 621.678 415.067 609.145C433.067 597.545 456.533 573.145 468.933 552.878C475.2 542.478 475.6 542.211 485.067 538.211C501.467 531.411 511.467 518.345 512.933 501.678C513.6 494.345 513.2 492.745 508.8 483.411L503.733 473.278L505.2 462.211C506.133 456.078 507.867 446.745 509.333 441.278C512.667 429.011 512.667 423.145 509.467 407.145C508 399.945 506.133 388.078 505.467 380.478C504.667 373.011 503.333 360.745 502.533 353.278C500.267 331.145 491.2 311.145 471.467 285.011C449.867 256.211 437.067 244.478 418.8 236.878C412.933 234.478 405.2 230.345 401.733 227.811C392.133 220.878 386 218.211 368 213.011C354.8 209.145 349.067 208.211 340.133 208.211H328.933L329.6 144.478C330.267 81.9448 330 73.5448 327.2 72.6114C326.533 72.3448 320.8 79.5448 314.667 88.4781C295.333 116.745 289.333 124.345 287.467 123.278C285.733 122.211 238.667 80.7448 200.133 46.0781C146.533 -1.78858 145.333 -2.85524 145.333 1.81142ZM165.2 20.4781C174.4 28.7448 244.133 93.9448 257.333 106.345C272.933 121.278 285.467 132.211 286.8 132.211C287.333 132.211 295.2 123.545 304 112.878C312.933 102.211 320.8 93.5448 321.467 93.5448C322.8 93.5448 323.067 123.811 321.867 149.811L320.933 167.945L307.467 168.878C281.733 170.611 267.2 174.478 246 184.745C213.733 200.345 196.4 221.145 180.8 263.278C166.4 301.945 161.467 340.611 160.8 419.545L160.4 459.545L151.867 464.345C142.267 469.811 138.267 474.878 135.2 485.411C132.533 494.211 133.467 504.211 137.6 513.945C141.067 521.811 152.133 530.745 162.133 533.678C169.333 535.811 169.6 536.345 172.667 552.878C173.867 559.411 175.733 568.078 176.933 571.945C178.4 576.211 178.667 579.411 177.867 580.211C176.667 581.411 158.667 584.478 137.333 586.878C130.4 587.678 123.067 588.611 121.067 589.011C117.867 589.678 117.333 589.278 117.333 586.611C117.333 584.878 120.667 570.345 124.667 554.345C128.667 538.211 132.267 522.478 132.8 519.411L133.6 513.811L108.533 505.811C94.6667 501.411 77.2 495.945 69.7333 493.545C62.1333 491.278 56 489.011 56 488.478C56 487.411 54.2667 488.478 91.2 465.811C124.267 445.678 126.533 444.078 126.667 442.078C126.667 441.278 102.667 420.078 73.3333 394.878C44 369.811 20 348.878 20 348.611C20 347.145 30.6667 345.011 70.9333 338.211C118.533 330.345 129.2 328.211 130 326.878C130.267 326.478 115.467 306.345 97.0667 282.211C39.4667 206.611 18.6667 178.745 18.6667 177.411C18.6667 175.145 24.8 175.811 84.6667 184.878C136.4 192.745 174.8 197.811 176.8 197.011C178 196.611 178.533 195.278 178.133 193.945C176.933 189.811 170.933 142.478 164 82.2114C160.4 49.9448 156.933 21.5448 156.533 19.1448C155.6 13.2781 157.6 13.6781 165.2 20.4781ZM320.667 204.211V234.078L304.667 237.145C295.867 238.878 286.933 240.878 284.667 241.411L280.667 242.611L285.6 242.745C288.267 242.878 296.933 241.678 304.8 240.078C313.6 238.478 319.467 237.811 320.267 238.611C320.933 239.278 321.333 241.811 321.067 244.345C320.667 248.345 320.133 249.011 314.667 250.478C302.8 253.945 284.4 256.211 266 256.345L247.333 256.611L262 257.945C277.6 259.411 294.267 258.078 310.667 254.345C315.333 253.278 319.733 252.745 320.267 253.011C322.133 254.211 321.467 271.811 319.6 273.278C318.667 274.078 309.867 276.345 300 278.345C282.267 281.945 281.2 281.945 237.2 281.678C195.733 281.411 192.4 281.678 190.4 283.811C189.333 285.145 188 287.678 187.6 289.278C185.467 297.945 190.8 300.078 221.2 302.478C234.8 303.545 258.267 304.478 273.333 304.478C297.333 304.478 301.733 304.211 309.2 301.811C314 300.211 318.4 299.411 319.067 299.811C320.4 300.611 319.2 477.145 317.867 493.945C317.333 499.811 316.533 502.878 315.467 502.611C313.067 501.811 305.467 485.411 304 477.678C303.333 473.811 302.667 463.811 302.533 455.678C302.533 447.545 302 439.678 301.333 438.211C299.733 434.345 299.733 476.878 301.467 484.211C303.2 491.811 308.4 502.078 313.333 507.811C317.333 512.211 317.333 512.478 317.333 528.211V544.078L310.4 544.745C306.533 545.145 296.8 545.811 288.667 546.345C266.4 547.545 233.2 557.145 224.267 564.878C220.267 568.345 220.933 570.611 225.333 568.211C228.933 566.211 253.067 557.811 261.733 555.545L268.133 553.678L272.4 559.945C278.133 568.345 282.8 572.611 291.333 577.545C298.4 581.545 298.667 581.945 301.333 591.278C305.467 605.678 306.667 607.945 312.933 615.278C316.133 619.011 318.667 622.745 318.667 623.678C318.667 624.478 319.6 637.411 320.667 652.345C321.867 667.278 322.4 680.345 322 681.278C321.333 682.878 318.667 683.145 305.6 682.345C297.067 681.811 286.133 680.478 281.333 679.411C262.667 674.878 236 658.745 218.533 641.278C210.8 633.545 198.8 615.945 194.133 605.278C182.533 579.145 175.067 543.678 169.2 488.211C165.067 447.811 165.867 369.411 170.8 328.211C174.667 295.678 186.533 257.011 199.467 234.745C211.867 213.278 225.6 200.878 250 189.011C265.733 181.411 274.933 178.611 290.667 176.345C296.133 175.545 302.133 174.611 304 174.345C305.867 174.078 310.4 173.945 314 174.078L320.667 174.211V204.211ZM320 286.078C320 290.878 319.333 295.145 318.667 295.545C317.867 296.078 312.933 297.678 307.6 299.145C299.467 301.545 294.267 301.945 274 301.945C247.867 302.078 198.8 298.611 193.067 296.345C190.133 295.278 189.333 294.078 189.333 291.011C189.333 283.545 189.333 283.545 243.2 283.411C288.267 283.411 293.733 283.145 304 280.611C321.067 276.478 320 276.211 320 286.078ZM356.533 282.211C388.267 288.345 422.133 308.345 443.467 333.278C470 364.478 481.067 394.078 484 441.945C486.4 481.811 481.867 515.145 471.333 536.345C465.067 548.878 450.667 568.078 438.8 579.945C413.867 604.611 376.267 621.678 339.6 625.011L329.333 625.945L329.6 596.078L330 566.211L350.8 565.811L371.733 565.545L372.267 562.211C372.667 560.345 372.133 557.811 371.2 556.478C368.133 552.078 350.533 544.345 339.6 542.611L329.333 540.878V521.145C329.333 501.545 329.333 501.411 332.8 498.478C335.2 496.345 336.4 493.678 336.933 489.411C337.6 483.945 337.2 483.145 332.8 478.745C328.133 474.211 328 473.678 326.667 460.211C326 452.478 325.2 436.345 325.067 424.211C324.533 397.411 326.667 281.278 327.733 279.678C328.533 278.345 343.067 279.678 356.533 282.211ZM163.333 485.145C164.4 494.478 165.867 508.078 166.8 515.278C167.867 523.811 168 528.745 167.2 529.545C165.2 531.545 150 523.545 145.467 517.945C140.267 511.678 138.267 503.678 138.933 492.345C139.333 484.611 140.133 481.945 143.333 477.411C147.6 471.278 158.267 464.611 160.4 466.745C161.067 467.411 162.4 475.678 163.333 485.145ZM498.933 478.478C505.6 485.545 508 491.011 508 499.145C508 510.745 500.4 522.078 488.133 529.011C482.8 531.945 478.667 533.145 478.667 531.545C478.667 531.278 479.6 528.611 480.667 525.945C483.6 518.078 486.4 505.678 487.333 496.211C489.333 474.078 489.467 473.545 491.867 473.545C493.067 473.545 496.267 475.811 498.933 478.478ZM333.333 486.745C333.333 493.545 331.733 497.011 329.467 495.678C327.867 494.611 327.333 479.945 328.933 478.478C330.933 476.345 333.333 480.878 333.333 486.745ZM350.8 549.011C358.8 551.545 369.733 558.478 368.933 560.611C368.4 562.211 349.6 562.878 335.733 561.811L329.333 561.278V553.278V545.278L337.067 546.078C341.2 546.611 347.467 547.945 350.8 549.011ZM317.067 579.145C317.2 599.411 316.933 609.545 316 609.545C314 609.545 310 602.345 306.667 593.011C302.4 580.878 301.467 579.545 296.933 576.878C285.867 570.345 273.6 555.411 276.8 552.211C278.667 550.345 295.067 548.478 306.667 548.745L316.667 548.878L317.067 579.145ZM188.533 605.411C191.2 611.678 193.333 617.145 193.333 617.811C193.333 618.878 183.6 624.211 181.333 624.211C179.867 624.211 179.467 603.278 180.8 596.345C181.867 590.878 182.667 591.811 188.533 605.411Z" fill="#065BA9" />
  <path d="M271.6 311.811C271.067 312.211 274.267 315.011 278.667 317.811C288.267 324.211 296 332.878 301.333 343.411C305.867 352.345 306.4 356.878 303.067 358.611C301.733 359.278 286.933 360.211 270 360.745C236.533 361.678 220.8 363.011 201.333 366.478C180.933 370.078 182 370.345 182.4 360.878C182.8 350.078 185.867 341.545 192.133 333.278C197.733 325.678 198.267 324.211 195.467 324.211C192.8 324.211 186.4 332.211 182 340.878C170.533 363.678 178.4 397.545 200 418.078C214.267 431.678 232.533 437.678 252 435.011C271.2 432.478 277.733 429.278 290.8 416.345C301.333 405.811 302.4 404.078 305.467 394.878C308.267 386.211 308.667 382.345 308.667 366.211C308.667 350.078 308.267 346.611 305.6 340.211C302.133 331.411 291.067 318.478 284.133 315.011C278.267 312.078 272.667 310.611 271.6 311.811ZM292.933 365.278C299.6 365.811 305.6 366.611 306.133 367.145C307.467 368.611 304.4 385.678 301.067 394.478C297.2 405.011 284.133 418.478 272.933 423.678C264.933 427.411 263.867 427.545 244.667 427.545C224.933 427.545 224.533 427.545 214.4 423.145C199.867 416.878 190.533 405.545 185.067 387.811C181.2 374.745 179.733 375.678 212.667 369.678C220 368.345 226.667 367.678 227.333 368.345C228.133 368.878 230.533 373.011 232.667 377.545C236.8 386.211 238.933 387.145 244.667 383.411C247.333 381.678 248 380.078 248 375.678C248.133 370.078 249.867 366.611 253.333 365.145C256 364.211 277.6 364.211 292.933 365.278Z" fill="#065BA9" />
  <path d="M272 453.678C260.933 461.011 253.467 462.878 236.133 462.878C218.933 462.878 207.867 460.478 200.267 455.011C194.533 451.011 193.2 451.545 198.8 455.678C210.4 464.345 212.267 464.878 234.667 464.878C254.4 464.878 255.6 464.745 262.667 461.278C268.8 458.211 280.8 449.545 278.667 449.678C278.267 449.678 275.333 451.545 272 453.678Z" fill="#065BA9" />
  <path d="M205.333 558.078C200.133 570.345 202.133 577.945 211.867 584.078C215.6 586.345 218.933 588.211 219.333 588.211C219.6 588.211 216.533 585.145 212.533 581.411C206 575.011 205.333 573.945 205.333 568.611C205.333 565.411 206.267 560.611 207.333 557.945C208.4 555.278 209.067 552.878 208.667 552.478C208.4 552.078 206.8 554.611 205.333 558.078Z" fill="#065BA9" />
  <path d="M362.267 324.478C362 325.411 362 327.145 362.267 328.345C362.8 330.211 365.6 330.611 378.4 331.145C392 331.811 396 332.478 408.8 336.878C422.667 341.678 429.467 342.345 427.2 338.745C422.533 331.145 364.4 318.478 362.267 324.478Z" fill="#065BA9" />
  <path d="M375.2 352.745C346.533 361.811 329.467 386.211 329.333 418.478C329.333 442.611 335.467 455.545 352 466.745C383.067 487.411 428.133 479.011 447.333 448.878C452.933 440.078 454.4 435.545 456.133 421.545C457.867 406.611 456.133 396.078 449.733 383.811C444.267 373.411 432.133 361.678 422.667 357.411C409.2 351.278 386.8 349.145 375.2 352.745ZM414.8 358.878C436.4 367.278 449.067 386.211 450.4 411.945C451.6 435.145 446 449.145 431.067 460.345C418.533 469.811 410.933 472.211 392.933 472.211C384.667 472.211 375.333 471.545 372.133 470.745C355.867 467.011 340.933 455.145 336.133 442.211C331.467 429.811 333.067 408.745 340.267 389.145C344.133 378.478 356.267 366.345 369.867 359.411C379.333 354.611 379.333 354.611 393.333 355.278C403.2 355.811 409.467 356.745 414.8 358.878Z" fill="#065BA9" />
  <path d="M394.4 413.145C390 413.811 389.467 417.411 393.067 420.611C396.667 423.945 399.467 423.411 401.333 419.011C403.067 414.878 402.267 412.078 399.6 412.345C398.667 412.478 396.4 412.878 394.4 413.145Z" fill="#065BA9" />
</svg>


